<?xml version="1.0" encoding="UTF-8"?>
<!DOCTYPE svg PUBLIC "-//W3C//DTD SVG 1.1//EN" "http://www.w3.org/Graphics/SVG/1.1/DTD/svg11.dtd">
<svg version="1.1" xmlns="http://www.w3.org/2000/svg" xmlns:xlink="http://www.w3.org/1999/xlink" x="0" y="0" width="209" height="209" viewBox="0, 0, 209, 209">
  <g id="Background">
    <path d="M0,0 L209,0 L209,209 L0,209 L0,0 z" fill="#FFFFFF"/>
  </g>
  <g id="Grid">
    <path d="M14.167,0.5 L14.833,209.5" fill-opacity="0" stroke="#B6B6B6" stroke-width="1" stroke-opacity="0.45"/>
    <path d="M26.167,0.5 L26.167,209.5" fill-opacity="0" stroke="#B6B6B6" stroke-width="1" stroke-opacity="0.45"/>
    <path d="M38.5,0.5 L38.5,209.5" fill-opacity="0" stroke="#B6B6B6" stroke-width="1" stroke-opacity="0.45"/>
    <path d="M50.167,0.5 L50.167,209.5" fill-opacity="0" stroke="#B6B6B6" stroke-width="1" stroke-opacity="0.45"/>
    <path d="M62.833,0.5 L62.833,209.5" fill-opacity="0" stroke="#B6B6B6" stroke-width="1" stroke-opacity="0.45"/>
    <path d="M74.833,0.5 L74.833,209.5" fill-opacity="0" stroke="#B6B6B6" stroke-width="1" stroke-opacity="0.45"/>
    <path d="M86.167,0.5 L86.167,209.5" fill-opacity="0" stroke="#B6B6B6" stroke-width="1" stroke-opacity="0.45"/>
    <path d="M98.167,0.5 L98.167,209.5" fill-opacity="0" stroke="#B6B6B6" stroke-width="1" stroke-opacity="0.45"/>
    <path d="M110.833,0.5 L110.833,209.5" fill-opacity="0" stroke="#B6B6B6" stroke-width="1" stroke-opacity="0.45"/>
    <path d="M122.833,0.5 L122.833,209.5" fill-opacity="0" stroke="#B6B6B6" stroke-width="1" stroke-opacity="0.45"/>
    <path d="M134.167,0.5 L134.167,209.5" fill-opacity="0" stroke="#B6B6B6" stroke-width="1" stroke-opacity="0.45"/>
    <path d="M146.833,0.5 L146.833,209.5" fill-opacity="0" stroke="#B6B6B6" stroke-width="1" stroke-opacity="0.45"/>
    <path d="M158.167,0.5 L158.167,209.5" fill-opacity="0" stroke="#B6B6B6" stroke-width="1" stroke-opacity="0.45"/>
    <path d="M170.167,0.5 L170.167,209.5" fill-opacity="0" stroke="#B6B6B6" stroke-width="1" stroke-opacity="0.45"/>
    <path d="M182.833,0.5 L182.833,209.5" fill-opacity="0" stroke="#B6B6B6" stroke-width="1" stroke-opacity="0.45"/>
    <path d="M195.833,0.5 L195.833,209.5" fill-opacity="0" stroke="#B6B6B6" stroke-width="1" stroke-opacity="0.45"/>
    <path d="M206.5,0.5 L206.5,209.5" fill-opacity="0" stroke="#B6B6B6" stroke-width="1" stroke-opacity="0.45"/>
    <path d="M0.5,12.167 L209.5,12.833" fill-opacity="0" stroke="#B6B6B6" stroke-width="1" stroke-opacity="0.45"/>
    <path d="M0.5,23.833 L209.5,24.5" fill-opacity="0" stroke="#B6B6B6" stroke-width="1" stroke-opacity="0.45"/>
    <path d="M0.5,36.833 L209.5,37.5" fill-opacity="0" stroke="#B6B6B6" stroke-width="1" stroke-opacity="0.45"/>
    <path d="M0.5,47.833 L209.5,48.5" fill-opacity="0" stroke="#B6B6B6" stroke-width="1" stroke-opacity="0.45"/>
    <path d="M0.5,60.833 L209.5,61.5" fill-opacity="0" stroke="#B6B6B6" stroke-width="1" stroke-opacity="0.45"/>
    <path d="M0.5,71.833 L209.5,72.5" fill-opacity="0" stroke="#B6B6B6" stroke-width="1" stroke-opacity="0.45"/>
    <path d="M0.5,84.833 L209.5,85.5" fill-opacity="0" stroke="#B6B6B6" stroke-width="1" stroke-opacity="0.45"/>
    <path d="M0.5,96.833 L209.5,97.5" fill-opacity="0" stroke="#B6B6B6" stroke-width="1" stroke-opacity="0.45"/>
    <path d="M0.5,107.833 L209.5,108.5" fill-opacity="0" stroke="#B6B6B6" stroke-width="1" stroke-opacity="0.45"/>
    <path d="M0.5,119.833 L209.5,120.5" fill-opacity="0" stroke="#B6B6B6" stroke-width="1" stroke-opacity="0.45"/>
    <path d="M0.5,131.833 L209.5,132.5" fill-opacity="0" stroke="#B6B6B6" stroke-width="1" stroke-opacity="0.45"/>
    <path d="M0.5,144.833 L209.5,145.5" fill-opacity="0" stroke="#B6B6B6" stroke-width="1" stroke-opacity="0.45"/>
    <path d="M0.5,156.833 L209.5,157.5" fill-opacity="0" stroke="#B6B6B6" stroke-width="1" stroke-opacity="0.45"/>
    <path d="M0.5,168.833 L209.5,169.5" fill-opacity="0" stroke="#B6B6B6" stroke-width="1" stroke-opacity="0.45"/>
    <path d="M0.5,179.833 L209.5,180.5" fill-opacity="0" stroke="#B6B6B6" stroke-width="1" stroke-opacity="0.45"/>
    <path d="M0.5,191.833 L209.5,192.5" fill-opacity="0" stroke="#B6B6B6" stroke-width="1" stroke-opacity="0.45"/>
    <path d="M0.5,203.833 L209.5,204.5" fill-opacity="0" stroke="#B6B6B6" stroke-width="1" stroke-opacity="0.45"/>
    <path d="M2.833,0.5 L3.5,209.5" fill-opacity="0" stroke="#B6B6B6" stroke-width="1" stroke-opacity="0.45"/>
  </g>
  <g id="Hexagon_(no_border)" display="none">
    <path d="M104.333,209 L14,156.928 L14.204,52.428 L104.704,-0 L195,52.072 L195,157 z" fill="#B622B5"/>
  </g>
  <g id="Hexagon_(border)">
    <g>
      <path d="M104.846,201.5 L21.5,153.414 L21.689,56.914 L105.189,8.5 L188.5,56.586 L188.5,153.481 z" fill="#B622B5"/>
      <path d="M104.846,201.5 L21.5,153.414 L21.689,56.914 L105.189,8.5 L188.5,56.586 L188.5,153.481 z" fill-opacity="0" stroke="#FFFFFE" stroke-width="14"/>
    </g>
  </g>
  <g id="Diags" display="none">
    <path d="M14.704,52.928 L195.5,157.5" fill-opacity="0" stroke="#B6B6B6" stroke-width="1" stroke-opacity="0.45"/>
    <path d="M14.5,157.428 L195.5,52.928" fill-opacity="0" stroke="#B6B6B6" stroke-width="1" stroke-opacity="0.45"/>
    <path d="M104.833,209.5 L105.204,0.5" fill-opacity="0" stroke="#B6B6B6" stroke-width="1" stroke-opacity="0.45"/>
  </g>
  <g id="Border_Scores">
    <path d="M28.75,149.156 L14.5,157.428" fill-opacity="0" stroke="#B6B6B6" stroke-width="1" stroke-opacity="0.901"/>
    <path d="M14.704,52.928 L28.969,61.188" fill-opacity="0" stroke="#B6B6B6" stroke-width="1" stroke-opacity="0.901"/>
    <path d="M105.204,0.5 L105.204,17.062" fill-opacity="0" stroke="#B6B6B6" stroke-width="1" stroke-opacity="0.901"/>
    <path d="M181.469,61 L195.5,52.928" fill-opacity="0" stroke="#B6B6B6" stroke-width="1" stroke-opacity="0.901"/>
    <path d="M181.219,149.312 L195.5,157.5" fill-opacity="0" stroke="#B6B6B6" stroke-width="1" stroke-opacity="0.901"/>
    <path d="M104.833,193.094 L104.833,209.5" fill-opacity="0" stroke="#B6B6B6" stroke-width="1" stroke-opacity="0.901"/>
  </g>
  <g id="Symbol">
    <path d="M110.797,116.307 L98.406,116.307 L95.816,66.693 L113.387,66.693 z M95.613,133.674 Q95.613,129.408 97.898,127.225 Q100.184,125.041 104.551,125.041 Q108.766,125.041 111.076,127.275 Q113.387,129.51 113.387,133.674 Q113.387,137.686 111.051,139.996 Q108.715,142.307 104.551,142.307 Q100.285,142.307 97.949,140.047 Q95.613,137.787 95.613,133.674 z" fill="#FFFFFE"/>
  </g>
</svg>
